<?xml version="1.0" standalone="no"?>
<!DOCTYPE svg PUBLIC "-//W3C//DTD SVG 20010904//EN"
 "http://www.w3.org/TR/2001/REC-SVG-20010904/DTD/svg10.dtd">
<svg version="1.0" xmlns="http://www.w3.org/2000/svg"
 width="512.000000pt" height="512.000000pt" viewBox="0 0 512.000000 512.000000"
 preserveAspectRatio="xMidYMid meet">
<metadata>
Created by potrace 1.11, written by Peter Selinger 2001-2013
</metadata>
<g transform="translate(0.000000,512.000000) scale(0.100000,-0.100000)"
fill="#000000" stroke="none">
<path d="M765 4810 c-70 -7 -209 -61 -275 -106 -45 -31 -45 -31 -44 -88 1 -32
7 -63 13 -69 6 -6 11 -17 11 -25 0 -7 26 -57 57 -110 45 -78 81 -122 182 -222
69 -69 153 -149 186 -179 47 -43 315 -295 369 -347 6 -6 34 -27 62 -47 29 -19
92 -64 140 -98 49 -34 93 -65 97 -69 5 -4 -22 -18 -59 -30 -37 -13 -110 -47
-163 -77 -53 -30 -107 -57 -121 -59 -102 -18 -138 -25 -155 -28 -11 -2 -56
-10 -100 -17 -48 -7 -154 -40 -265 -81 -102 -38 -258 -96 -346 -129 -123 -45
-185 -74 -258 -121 l-96 -63 0 -647 c0 -357 2 -648 5 -648 3 0 42 23 86 50 92
57 88 58 173 -20 23 -21 69 -52 104 -69 35 -18 85 -48 112 -67 l49 -35 -2
-142 c-1 -78 1 -158 5 -177 8 -34 5 -38 -87 -132 -70 -70 -99 -93 -106 -85
-16 18 -115 160 -196 282 -59 88 -80 111 -103 116 -16 4 -32 4 -35 1 -9 -10
-5 -442 4 -439 5 1 31 -21 58 -48 36 -38 67 -58 126 -83 l79 -31 91 66 c51 37
94 70 97 73 6 7 109 50 120 50 4 0 20 -24 35 -52 31 -59 54 -89 125 -163 l48
-50 -75 -100 c-79 -106 -201 -341 -224 -430 -7 -27 -17 -53 -23 -57 -6 -4
1039 -8 2322 -8 l2332 0 0 560 0 561 -31 60 c-16 33 -43 96 -59 139 -26 70
-39 97 -87 175 -7 11 -28 47 -48 79 -32 53 -35 62 -24 83 11 20 14 84 7 138
-2 14 3 20 20 21 12 1 26 2 31 3 9 1 19 21 81 159 18 39 38 72 45 72 6 0 20
-7 31 -15 10 -8 22 -15 27 -15 4 0 7 45 7 100 l0 100 -42 1 c-24 0 -53 2 -66
3 -30 4 -34 -3 -85 -133 -25 -63 -57 -128 -72 -145 l-28 -31 -22 50 c-32 70
-79 116 -159 156 -108 53 -153 107 -127 148 7 11 16 8 48 -16 68 -54 161 -50
205 10 13 17 59 92 103 164 44 73 85 133 91 133 5 0 39 -11 74 -25 35 -14 67
-25 72 -25 4 0 8 63 8 139 l0 139 -42 25 c-33 19 -53 24 -101 22 -54 -2 -62
-6 -103 -46 -31 -31 -49 -60 -64 -105 -42 -127 -162 -323 -198 -324 -7 0 -37
18 -67 40 -30 22 -58 40 -63 40 -5 0 -26 -28 -47 -62 l-38 -62 -29 35 c-16 19
-39 57 -52 84 -21 47 -51 95 -189 307 -31 48 -82 116 -112 152 -49 57 -227
209 -411 349 l-64 49 34 41 c54 67 61 85 41 108 -10 10 -47 33 -82 51 -35 18
-66 35 -69 39 -2 4 21 37 51 73 31 36 54 70 51 75 -3 4 -25 8 -49 8 -38 0 -49
6 -93 49 -28 27 -99 94 -159 149 -60 55 -128 119 -153 141 -24 23 -56 48 -70
55 -26 13 -180 100 -212 119 -8 5 -49 28 -90 50 -41 23 -80 47 -85 54 -24 31
-298 156 -460 209 -214 71 -596 180 -675 193 -14 3 -74 15 -135 29 -60 13
-122 26 -138 29 -45 8 -145 26 -174 31 -15 2 -68 7 -117 10 -50 4 -100 7 -111
9 -11 1 -47 -1 -80 -4z m-155 -2804 c0 -22 -33 -164 -49 -209 -11 -32 -23 -99
-27 -148 -4 -49 -9 -89 -11 -89 -19 0 -100 60 -131 98 -74 89 -74 88 -1 151
35 31 96 88 134 128 62 64 85 83 85 69z"/>
<path d="M4408 4662 c-69 -23 -136 -66 -198 -126 l-61 -59 -57 57 c-74 74
-151 108 -237 103 -91 -5 -140 -34 -228 -134 -26 -30 -59 -168 -56 -238 2 -35
13 -83 26 -114 13 -29 23 -59 23 -65 0 -6 10 -22 23 -36 12 -14 38 -45 57 -70
40 -53 64 -76 150 -150 82 -70 185 -164 231 -211 20 -21 51 -45 69 -54 l32
-17 119 124 c76 78 140 156 177 213 31 50 98 150 150 223 154 219 172 319 84
449 -56 82 -110 114 -199 116 -37 1 -84 -4 -105 -11z"/>
</g>
</svg>
